<?xml version="1.0" encoding="utf-8"?>
<!-- Generator: Adobe Illustrator 20.0.0, SVG Export Plug-In . SVG Version: 6.00 Build 0)  -->
<svg version="1.1" id="Icon" xmlns="http://www.w3.org/2000/svg" xmlns:xlink="http://www.w3.org/1999/xlink" x="0px" y="0px"
	 viewBox="0 0 240 235" style="enable-background:new 0 0 240 235;" xml:space="preserve">
<style type="text/css">
	.st0{fill-rule:evenodd;clip-rule:evenodd;fill:url(#SVGID_1_);}
	.st1{fill-rule:evenodd;clip-rule:evenodd;fill:#17D8FF;}
	.st2{fill-rule:evenodd;clip-rule:evenodd;fill:#CBF0FE;}
</style>
<g>
	
		<radialGradient id="SVGID_1_" cx="97.7105" cy="105.7044" r="143.7928" gradientTransform="matrix(1.0909 0 0 1.093 -10.9091 -37.2558)" gradientUnits="userSpaceOnUse">
		<stop  offset="0" style="stop-color:#324447"/>
		<stop  offset="0.7669" style="stop-color:#051A1E"/>
	</radialGradient>
	<rect class="st0" width="240" height="235"/>
	<path class="st1" d="M16.8,117c0,57,46.2,103.2,103.2,103.2S223.2,174,223.2,117S177,13.8,120,13.8S16.8,60,16.8,117z M27.4,117
		c0-51.2,41.5-92.7,92.6-92.7s92.6,41.5,92.6,92.7s-41.5,92.7-92.6,92.7S27.4,168.2,27.4,117z"/>
	<path class="st2" d="M76,97.2c5,0,9.7,2,13.3,5.5s5.5,8.3,5.5,13.3c0,5-2,9.8-5.5,13.4c-3.5,3.6-8.3,5.5-13.3,5.5
		c-5,0-9.7-2-13.3-5.5c-3.5-3.6-5.5-8.3-5.5-13.3c0-5,2-9.8,5.5-13.3C66.3,99.1,71,97.2,76,97.2z M119.9,53c5,0,9.7,2,13.3,5.5
		c7.3,7.4,7.3,19.3,0,26.7c-3.5,3.6-8.3,5.5-13.3,5.5c-5,0-9.7-2-13.3-5.5c-7.3-7.4-7.3-19.3,0-26.7C110.1,55,114.9,53,119.9,53z
		 M118.1,139.5c5,0,9.7,2,13.3,5.5c3.5,3.6,5.5,8.3,5.5,13.4c0,5-1.9,9.8-5.5,13.4c-3.5,3.6-8.3,5.5-13.3,5.5s-9.7-2-13.3-5.5
		c-7.3-7.4-7.3-19.3,0-26.7C108.4,141.5,113.1,139.5,118.1,139.5z M162,99c4.1,0,7.9,1.6,10.8,4.5c2.9,2.9,4.5,6.7,4.5,10.8
		s-1.6,7.9-4.5,10.8s-6.7,4.5-10.8,4.5s-7.9-1.6-10.8-4.5c-2.9-2.9-4.5-6.7-4.5-10.8s1.6-7.9,4.5-10.8S157.9,99,162,99z M76,93.6
		c-5.7,0-11.4,2.2-15.8,6.6c-8.7,8.8-8.7,23,0,31.8c4.4,4.4,10.1,6.6,15.8,6.6c5.7,0,11.4-2.2,15.8-6.6c8.3-8.3,8.7-21.6,1.2-30.4
		L105.7,89c3.7,3.2,8.2,5,12.8,5.3v41.6h-0.1c-5.7,0-11.7,2.2-16.1,6.6c-8.7,8.8-8.7,23,0,31.8c4.4,4.4,10.1,6.6,15.8,6.6
		c5.7,0,11.4-2.2,15.8-6.6c7.7-7.8,8.6-19.8,2.6-28.6l12.8-12.9c3.8,2.7,8.2,4,12.7,4c5.7,0,11.4-2.2,15.8-6.6
		c8.7-8.8,8.7-23,0-31.8c-4.4-4.4-10.1-6.6-15.8-6.6c-5.7,0-11.4,2.2-15.8,6.6c-8.7,8.8-8.7,23,0,31.8c0.1,0.1,0.3,0.3,0.4,0.4
		l-12.3,12.4l-0.8-0.4c-3.4-3.4-7.6-5.5-12.1-6.3v-42c5-0.5,9.9-2.6,13.8-6.5c8.7-8.8,9.1-23,0.4-31.8c-4.4-4.4-10.1-6.6-15.8-6.6
		c-5.7,0-11.4,2.2-15.8,6.6c-8.3,8.3-8.7,21.6-1.2,30.4L90.5,98.9C86.3,95.3,81.2,93.6,76,93.6z M171.9,113.9c0,5.3-3.4,10-9.6,10.1
		c-6.5,0.1-10.1-4.3-10.1-9.6c0-5.3,4.4-10.2,9.7-10.2S171.9,108.6,171.9,113.9z"/>
</g>
</svg>
